<svg width="72" height="24" viewBox="0 0 72 24" fill="none" xmlns="http://www.w3.org/2000/svg">
<g clip-path="url(#clip0_4281_14936)">
<path fill-rule="evenodd" clip-rule="evenodd" d="M56.7897 1.67999C56.7897 2.60577 57.5501 3.3601 58.4834 3.3601C59.4166 3.3601 60.1771 2.60577 60.1771 1.67999C60.1771 0.754327 59.4166 0 58.4834 0C57.5501 0 56.7897 0.754327 56.7897 1.67999ZM66.3153 8.79083C66.687 10.3552 66.5206 12.5538 63.9844 14.6345C65.7623 15.0438 67.9421 14.8831 70.2277 14.1481L71.04 16.6252C67.294 17.8338 63.8073 17.7396 61.1847 16.3703C59.2389 17.3041 57.2089 17.862 55.9322 18.1549L55.7018 18.2067C51.6305 19.0996 50.7753 18.5202 50.4916 18.297L50.4714 18.281C49.51 17.5061 49.7236 16.084 50.2429 13.8057L50.6213 12.1662C50.6728 11.939 50.725 11.7038 50.7743 11.4716C50.4139 11.8291 50.0261 12.2279 49.646 12.6246L47.3795 15.0126C44.5856 17.9261 43.4301 18.8492 42.2238 18.5282C40.5237 18.0761 40.299 15.9845 40.4999 13.4602C39.1087 15.2238 36.8383 17.1631 32.8979 18.8003L31.8803 16.396C37.8864 13.9012 39.2931 10.7992 40.0993 8.89117L40.246 8.54338L40.442 8.09873C40.7077 7.52577 41.0035 7.03739 41.4764 6.69301C41.9495 6.3501 42.5457 6.31578 43.0339 6.603C43.8973 7.11359 43.8561 7.88946 43.5631 10.0306L43.4239 11.0372C43.2539 12.2854 42.9902 14.4044 43.0771 15.5539C43.6849 15.0408 44.5359 14.1862 45.3383 13.3532L47.9276 10.6287C50.4448 8.01263 51.4775 7.23436 52.6343 7.78585C53.9773 8.42478 53.7876 10.0386 53.2451 12.4654L52.8285 14.273C52.7428 14.6506 52.6565 15.0453 52.5858 15.4086L52.5023 15.8702C52.4903 15.9425 52.4796 16.0123 52.4701 16.0788C53.7771 15.991 56.4364 15.5045 58.8753 14.5445C58.1566 13.6947 57.6379 12.6804 57.3459 11.5369L57.3048 11.3688C56.7323 8.92155 57.739 6.07796 60.7742 5.37291C63.6863 4.69789 65.8012 6.62865 66.3153 8.79083ZM13.8076 7.76891C15.1686 9.1897 15.6201 11.4161 15.0151 13.6384C17.0423 13.0838 19.2091 11.7432 21.2761 10.2636L22.2249 9.57902C23.2059 8.88481 23.7594 8.61083 24.4751 8.94759C25.5235 9.44005 25.4695 10.539 25.2442 12.3244L25.0914 13.5218C25.0196 14.1147 24.949 14.7921 24.946 15.2755C26.6138 14.7483 30.9322 12.269 33.9048 7.31463L36.1622 8.64755C34.015 12.2276 31.2785 14.5234 29.6481 15.6795L29.3163 15.9098C28.1044 16.7327 25.1102 18.5648 23.4878 17.7998C21.9886 17.0927 22.2478 14.9948 22.5654 12.5541L22.1201 12.8692C20.0276 14.332 16.7657 16.3429 13.5094 16.5184C12.6216 17.547 11.4572 18.2541 10.1373 18.5241C9.39407 18.6763 8.6985 18.7448 8.04829 18.7448C4.02927 18.7429 1.7433 16.1322 0.629011 14.6387L0.104157 13.9169C0.0818308 13.887 0.060492 13.8591 0.0400391 13.8333L2.11826 12.2412L2.31556 12.5058L2.75321 13.109C3.86387 14.6023 5.81814 16.7475 9.60797 15.972C9.74407 15.9441 9.87801 15.9076 10.0098 15.8626C9.04419 15.4019 8.11951 14.6777 7.27275 13.619C5.32417 11.1826 6.0608 8.67106 7.57081 7.37043C9.65334 5.57467 12.3385 6.23675 13.8076 7.76891ZM10.4721 8.88538C10.027 8.88538 9.61228 9.06111 9.29472 9.33539L9.18078 9.44403C8.8399 9.80006 8.27918 10.6827 9.33147 11.999C10.1631 13.0405 11.1245 13.6062 12.1679 13.8141C12.2651 13.6083 12.3516 13.3919 12.4228 13.1647C12.8657 11.7654 12.6626 10.3512 11.9065 9.56253C11.4464 9.08259 10.9408 8.88538 10.4721 8.88538ZM61.8782 7.85222L59.7944 9.54678C59.7373 9.89642 59.752 10.305 59.8626 10.7773C60.1045 11.8144 60.5992 12.6694 61.336 13.3274C61.9062 12.9695 62.4182 12.573 62.8417 12.136C63.9715 10.9681 63.9066 10.0058 63.7598 9.38652C63.4725 8.18016 62.5889 7.85222 61.8782 7.85222ZM61.876 7.85222C61.6923 7.85222 61.5196 7.87371 61.3726 7.90802C60.6409 8.0773 59.9509 8.5917 59.7946 9.54518L61.876 7.85222ZM25.9319 23.651L24.8939 23.652L24.9025 21.0462L27.6495 21.0341C29.2161 21.0176 31.0258 20.9793 31.8435 20.8918L32.1222 23.4827C30.843 23.6186 27.61 23.6462 25.9319 23.651ZM13.9644 22.0643C13.9644 22.9899 14.7248 23.7443 15.6581 23.7443C16.5914 23.7443 17.3517 22.9899 17.3517 22.0643C17.3517 21.1385 16.5914 20.3843 15.6581 20.3843C14.7248 20.3843 13.9644 21.1385 13.9644 22.0643ZM39.8261 21.4092L40.1089 23.9975L40.4194 23.968C42.3876 23.7999 46.9644 23.7042 47.0134 23.7042L46.9594 21.1006L44.7759 21.158C43.1051 21.2085 40.9121 21.2923 39.8261 21.4092Z" fill="#695E4F"/>
</g>
<defs>
<clipPath id="clip0_4281_14936">
<rect width="72" height="24" fill="white"/>
</clipPath>
</defs>
</svg>
