<svg width="96" height="24" viewBox="0 0 96 24" fill="none" xmlns="http://www.w3.org/2000/svg">
<path fill-rule="evenodd" clip-rule="evenodd" d="M95.9915 7.91597C95.9915 8.26316 95.7192 8.54092 95.3788 8.54092H90.9541V14.6949C90.9541 15.0768 91.2519 15.3806 91.6178 15.3806H95.3618C95.7107 15.3806 96 15.667 96 16.0316V16.778C96 16.969 95.9234 17.1599 95.7873 17.2988L94.5449 18.5747C94.4088 18.7136 94.2216 18.7917 94.0344 18.7917H92.6304C89.8564 18.7917 87.6185 16.4916 87.6185 13.6533V8.54092H86.5549C86.2145 8.54092 85.9422 8.26316 85.9422 7.91597V5.7547C85.9422 5.40751 86.2145 5.12975 86.5549 5.12975H87.61V0.68571C87.61 0.3038 87.9078 0 88.2737 0H90.2819C90.6478 0 90.9456 0.31248 90.9456 0.68571V6.83966L92.4006 5.34675C92.5368 5.20787 92.724 5.12975 92.9112 5.12975H95.3788C95.7192 5.12975 95.9915 5.40751 95.9915 5.7547V7.91597ZM74.8293 9.18374C74.8293 8.82787 75.1186 8.53276 75.4675 8.53276H80.658C81.092 8.53276 81.4834 8.86259 81.526 9.30526C81.577 9.81736 81.1856 10.2427 80.6921 10.2427H74.8293V9.18374ZM84.8786 16.7872V15.9713C84.8786 15.6415 84.6148 15.3638 84.2914 15.3638H75.459C75.1101 15.3638 74.8293 15.0773 74.8293 14.7214V13.6538H80.6921C83.0066 13.6538 84.8786 11.7443 84.8786 9.38338C84.8786 7.02248 83.0066 5.11293 80.6921 5.11293H76.5056C73.7316 5.11293 71.4767 7.40439 71.4767 10.2427V13.6625C71.4767 16.4921 73.7231 18.7923 76.5056 18.7923H82.9215C83.1087 18.7923 83.2789 18.7141 83.415 18.5839L84.6829 17.2907C84.8105 17.1605 84.8871 16.9782 84.8871 16.7872H84.8786ZM13.6571 5.1301H18.3116L18.3201 5.12141C21.1622 5.12141 23.4682 7.47365 23.4682 10.3727V18.1671C23.4682 18.5143 23.1959 18.7921 22.8555 18.7921H20.7282C20.3879 18.7921 20.1156 18.5143 20.1156 18.1671V9.5481C20.1156 8.98392 19.6646 8.53256 19.12 8.53256H13.07C13.2913 9.12278 13.4104 9.75642 13.4104 10.4161V18.1671C13.4104 18.5143 13.1381 18.7921 12.7977 18.7921H10.6704C10.3301 18.7921 10.0578 18.5143 10.0578 18.1671V9.5481C10.0578 8.98392 9.60681 8.53256 9.06222 8.53256H3.35259V18.1671C3.35259 18.5143 3.0803 18.7921 2.73993 18.7921H0.612652C0.272287 18.7921 0 18.5143 0 18.1671V5.76372C0 5.40785 0.280799 5.12141 0.629674 5.12141H2.72292C3.07179 5.12141 3.35259 5.40785 3.35259 5.76372V7.09171C3.35259 6.93547 3.42066 6.77056 3.53128 6.65772L4.8502 5.31237C4.96933 5.19953 5.12249 5.1301 5.28417 5.1301H8.21131C9.64935 5.1301 10.9512 5.72033 11.8872 6.68379L13.2317 5.31237C13.3423 5.19953 13.4955 5.1301 13.6571 5.1301ZM28.5142 14.3393C28.5142 14.9035 28.9651 15.3636 29.5182 15.3636V15.3549H35.2108V8.52388H29.5182C28.9651 8.52388 28.5142 8.9839 28.5142 9.54809V14.3393ZM30.1905 5.12141H37.8997C38.2656 5.12141 38.5634 5.4252 38.5634 5.79843V18.115C38.5634 18.4883 38.2656 18.7921 37.8997 18.7921H35.8831C35.5172 18.7921 35.2193 18.4883 35.2193 18.115V17.0908L33.6792 18.6619C33.6026 18.74 33.492 18.7834 33.3814 18.7834H30.1905C27.4165 18.7834 25.1701 16.4919 25.1701 13.6623V10.2425C25.1701 7.41287 27.4165 5.12141 30.1905 5.12141ZM50.8761 15.4331H45.1835C44.6304 15.4331 44.1794 14.973 44.1794 14.4088V9.6176C44.1794 9.05341 44.6304 8.59339 45.1835 8.59339H50.8761V15.4244V15.4331ZM53.5735 5.19092H51.5568C51.1909 5.19092 50.8931 5.49471 50.8931 5.86794V6.89215L49.3529 5.32111C49.2764 5.24299 49.1658 5.19959 49.0551 5.19959H45.8642C43.0902 5.19959 40.8438 7.49106 40.8438 10.3207V13.7492C40.8438 16.5788 43.0902 18.8702 45.8642 18.8702H50.8846V19.5386C50.8846 20.1028 50.4336 20.5889 49.8805 20.5889H43.1668C42.8094 20.5889 42.5116 20.884 42.5116 21.2485V22.0905C42.5116 22.2293 42.5627 22.3595 42.6648 22.455L44.0433 23.8524C44.1369 23.9479 44.2645 24 44.4006 24H49.2083C51.9823 24 54.2287 21.6738 54.2287 18.8442L54.2457 5.87661C54.2457 5.50338 53.9479 5.19959 53.582 5.19959L53.5735 5.19092ZM58.8491 18.7834H56.8325H56.824C56.4581 18.7834 56.1603 18.4796 56.1603 18.1064V5.79843C56.1603 5.4252 56.4581 5.12141 56.824 5.12141H58.8406C59.2065 5.12141 59.5043 5.4252 59.5043 5.79843V6.82264L61.0445 5.2516C61.1211 5.17348 61.2317 5.13008 61.3423 5.13008H64.5332C67.3072 5.13008 69.5536 7.42156 69.5536 10.2512V18.115C69.5536 18.4883 69.2558 18.7921 68.8899 18.7921H66.8733C66.5074 18.7921 66.2095 18.4883 66.2095 18.115V9.56545C66.2095 9.00127 65.7586 8.54125 65.2055 8.54125H59.5128V18.1064C59.5128 18.4796 59.215 18.7834 58.8491 18.7834Z" fill="#0A0A0A"/>
</svg>
