<svg width="125" height="24" viewBox="0 0 125 24" fill="none" xmlns="http://www.w3.org/2000/svg">
<path fill-rule="evenodd" clip-rule="evenodd" d="M20.7005 5.12798H23.9579V5.13666C26.7898 5.13666 29.0831 7.34056 29.0831 10.1692V18.1258C29.0831 18.4989 28.779 18.8026 28.4055 18.8026H26.3468C25.9732 18.8026 25.6692 18.4989 25.6692 18.1258V9.5705C25.6692 9.0065 25.2088 8.54664 24.6442 8.54664H18.8242V18.1171C18.8242 18.4902 18.5201 18.7939 18.1466 18.7939H16.0879C15.7143 18.7939 15.4103 18.4902 15.4103 18.1171V0.676788C15.4103 0.303686 15.7143 0 16.0879 0H18.1466C18.5201 0 18.8242 0.303686 18.8242 0.676788V6.74187L20.3964 5.24946C20.4746 5.17137 20.5875 5.12798 20.7005 5.12798ZM10.2589 9.65305C10.2589 9.08906 9.79852 8.62919 9.23389 8.62919V8.63785H3.42254V15.4665H9.23389C9.79852 15.4665 10.2589 15.0066 10.2589 14.4426V9.65305ZM2.7276 23.9958H0.677557C0.304031 23.9958 0 23.6921 0 23.319V5.896C0 5.52289 0.304031 5.21921 0.677557 5.21921H2.73629C3.10981 5.21921 3.41384 5.52289 3.41384 5.896V6.91986L4.98612 5.34935C5.0643 5.26259 5.17723 5.21921 5.29016 5.21921H8.54765C11.3795 5.21921 13.6728 7.50989 13.6728 10.3385V13.7572C13.6728 16.5858 11.3795 18.8765 8.54765 18.8765H3.40516V23.319C3.40516 23.6921 3.10113 23.9958 2.7276 23.9958ZM35.2764 15.4532C34.7118 15.4532 34.2514 14.9933 34.2514 14.4293V9.6397C34.2514 9.07571 34.7118 8.61585 35.2764 8.61585H41.0878V15.4445H35.2764V15.4532ZM43.8328 5.21455H35.9627C33.1308 5.21455 30.8376 7.50521 30.8376 10.3338V13.7525C30.8376 16.5811 33.1308 18.8718 35.9627 18.8718H39.2202C39.3331 18.8718 39.446 18.8284 39.5242 18.7503L41.0965 17.1798V18.2037C41.0965 18.5768 41.4005 18.8805 41.774 18.8805H43.8328C44.2063 18.8805 44.5103 18.5768 44.5103 18.2037V5.89133C44.5103 5.51823 44.2063 5.21455 43.8328 5.21455ZM51.5198 5.24077L54.0824 5.22343V5.20607C54.4559 5.20607 54.7599 5.50976 54.7599 5.88286V7.93058C54.7599 8.28633 54.4819 8.60736 54.1345 8.62472H49.6782V18.2126C49.6782 18.5857 49.3742 18.8894 49.0007 18.8894H46.9246C46.551 18.8894 46.247 18.5857 46.247 18.2126V5.89153C46.247 5.51843 46.551 5.21475 46.9246 5.21475H48.9746C49.3481 5.21475 49.6782 5.51843 49.6782 5.89153V6.92407L51.2158 5.36225C51.3026 5.28416 51.4069 5.24077 51.5198 5.24077ZM75.1907 5.22323H70.4391C70.2741 5.22323 70.1177 5.29264 70.0048 5.40544L68.6323 6.77638C67.6768 5.81326 66.3477 5.22323 64.8797 5.22323H61.8915C61.7264 5.22323 61.5701 5.29264 61.4485 5.40544L60.102 6.75033C59.9891 6.86313 59.9196 7.02799 59.9196 7.18417V5.85663C59.9196 5.50089 59.633 5.21455 59.2768 5.21455H57.1399C56.7837 5.21455 56.4971 5.50089 56.4971 5.85663V18.2558C56.4971 18.6028 56.775 18.8805 57.1225 18.8805H59.2942C59.6416 18.8805 59.9196 18.6028 59.9196 18.2558V8.62452H65.7484C66.3043 8.62452 66.7647 9.07572 66.7647 9.63971V18.2558C66.7647 18.6028 67.0427 18.8805 67.3901 18.8805H69.5618C69.9093 18.8805 70.1872 18.6028 70.1872 18.2558V10.5074C70.1872 9.84796 70.0656 9.21454 69.8398 8.62452H76.016C76.5719 8.62452 77.0323 9.07572 77.0323 9.63971V18.2558C77.0323 18.6028 77.3103 18.8805 77.6577 18.8805H79.8294C80.1768 18.8805 80.4548 18.6028 80.4548 18.2558V10.464C80.4548 7.56597 78.1007 5.21455 75.1994 5.21455L75.1907 5.22323ZM85.6061 14.4293C85.6061 14.9933 86.0665 15.4532 86.6311 15.4532V15.4445H92.4425V8.61585H86.6311C86.0665 8.61585 85.6061 9.07571 85.6061 9.6397V14.4293ZM87.3173 5.21455H95.1874C95.561 5.21455 95.865 5.51823 95.865 5.89133V18.2037C95.865 18.5768 95.561 18.8805 95.1874 18.8805H93.1287C92.7552 18.8805 92.4511 18.5768 92.4511 18.2037V17.1798L90.8789 18.7503C90.8007 18.8284 90.6878 18.8718 90.5748 18.8718H87.3173C84.4855 18.8718 82.1922 16.5811 82.1922 13.7525V10.3338C82.1922 7.50521 84.4855 5.21455 87.3173 5.21455ZM102.111 8.60294H107.644C107.792 8.60294 107.94 8.5422 108.044 8.43808L109.416 7.06714C109.521 6.96302 109.581 6.81551 109.581 6.668V5.89577C109.581 5.51399 109.277 5.21031 108.895 5.21031H102.832C99.9566 5.21031 97.6025 7.56172 97.6025 10.4337V13.7569C97.6025 16.1257 99.2964 18.1561 101.494 18.7548C101.824 18.8415 102.163 18.8849 102.51 18.8849H107.653C107.801 18.8849 107.948 18.8242 108.053 18.7201L109.425 17.3491C109.529 17.245 109.59 17.0975 109.59 16.95V16.1691C109.59 15.7873 109.286 15.4836 108.904 15.4836H102.128C101.572 15.4836 101.112 15.0324 101.112 14.4684V9.60943C101.112 9.04544 101.564 8.59425 102.128 8.59425L102.111 8.60294ZM122.264 5.20607H124.322C124.696 5.20607 125 5.50976 125 5.88286L124.983 18.846C124.983 21.6746 122.689 24 119.858 24H114.95C114.811 24 114.68 23.9479 114.585 23.8525L113.177 22.4555C113.073 22.3601 113.021 22.2299 113.021 22.0911V21.2494C113.021 20.8763 113.325 20.5813 113.69 20.5813H120.544C121.108 20.5813 121.569 20.0954 121.569 19.5315V18.8633H116.444C113.612 18.8633 111.327 16.5727 111.327 13.744V5.88286C111.327 5.50976 111.631 5.20607 112.005 5.20607H114.064C114.437 5.20607 114.732 5.50976 114.732 5.88286V14.4295C114.732 14.9935 115.193 15.4534 115.757 15.4534H121.569L121.586 5.88286C121.586 5.50976 121.89 5.20607 122.264 5.20607Z" fill="#007EAA"/>
</svg>
