<svg width="66" height="24" viewBox="0 0 66 24" fill="none" xmlns="http://www.w3.org/2000/svg">
<path fill-rule="evenodd" clip-rule="evenodd" d="M29.8147 0.677405V17.28C29.8147 17.635 30.1021 17.9239 30.4552 17.9239H32.3932C32.7464 17.9239 33.0338 17.635 33.0338 17.28V0.677405C33.0338 0.322402 32.7464 0.0334473 32.3932 0.0334473H30.4552C30.1021 0.0334473 29.8147 0.322402 29.8147 0.677405ZM4.06896 9.77913H8.9205V9.78855C11.2058 9.78855 13.0509 11.6906 12.9666 14.0069C12.8823 16.2103 11.0185 17.924 8.82684 17.924H0.687866C0.331962 17.924 0.0322557 17.6227 0.0322557 17.2554V16.5022C0.0322557 16.3515 0.0884494 16.2197 0.191474 16.1161L1.48397 14.7979C1.587 14.7037 1.71811 14.666 1.8586 14.666H8.92986C9.40752 14.666 9.78216 14.2612 9.73533 13.7715C9.6885 13.3478 9.31387 13.0371 8.8924 13.0371H4.0596C1.77432 13.0371 -0.0707732 11.135 0.0135199 8.8187C0.097813 6.61535 1.96164 4.90163 4.15326 4.90163H10.6907C11.0559 4.90163 11.3556 5.19353 11.3556 5.56075V6.31404C11.3556 6.46469 11.2994 6.59652 11.1964 6.70009L9.88519 7.9995C9.78216 8.10308 9.64167 8.15957 9.50118 8.15957H4.06896C3.62876 8.15957 3.26349 8.5268 3.26349 8.96935C3.26349 9.4119 3.61939 9.77913 4.06896 9.77913ZM17.7576 9.79796H23.424C23.8923 9.79796 24.2763 9.39307 24.2294 8.90344C24.1826 8.47972 23.8079 8.16899 23.3865 8.16899H18.3757C18.0292 8.16899 17.7576 8.45147 17.7576 8.79045V9.79796ZM19.3779 4.91105H23.424L23.4333 4.90163C25.6718 4.90163 27.4794 6.71892 27.4794 8.96935C27.4794 11.2198 25.6718 13.0371 23.4333 13.0371H17.7669V14.054C17.7669 14.393 18.0386 14.666 18.3757 14.666H26.8987C27.2171 14.666 27.47 14.9203 27.47 15.2404V16.0125C27.47 16.1914 27.3951 16.3703 27.2733 16.4927L26.0464 17.7263C25.9153 17.8487 25.7467 17.924 25.5687 17.924H19.3779C16.6992 17.924 14.5263 15.7395 14.5263 13.0465V9.78855C14.5263 7.09556 16.6992 4.91105 19.3779 4.91105ZM36.1475 17.28V0.677405C36.1475 0.322402 36.4349 0.0334473 36.7881 0.0334473H38.7261C39.0792 0.0334473 39.3666 0.322402 39.3666 0.677405V17.28C39.3666 17.635 39.0792 17.9239 38.7261 17.9239H36.7881C36.4349 17.9239 36.1475 17.635 36.1475 17.28ZM50.5995 9.79796H44.9332V8.79045C44.9332 8.45147 45.2048 8.16899 45.5513 8.16899H50.5621C50.9835 8.16899 51.3582 8.47972 51.405 8.90344C51.4518 9.39307 51.0678 9.79796 50.5995 9.79796ZM50.5995 4.91105H46.5534C43.8748 4.91105 41.7019 7.09556 41.7019 9.78855V13.0465C41.7019 15.7395 43.8748 17.924 46.5534 17.924H52.7443C52.9223 17.924 53.0909 17.8487 53.222 17.7263L54.4489 16.4927C54.5707 16.3703 54.6456 16.1914 54.6456 16.0125V15.2404C54.6456 14.9203 54.3927 14.666 54.0743 14.666H45.5513C45.2141 14.666 44.9425 14.393 44.9425 14.054V13.0371H50.6089C52.8473 13.0371 54.655 11.2198 54.655 8.96935C54.655 6.71892 52.8473 4.90163 50.6089 4.90163L50.5995 4.91105ZM61.9749 4.93733L64.3974 4.92082V4.90431C64.7505 4.90431 65.038 5.19326 65.038 5.54827V7.49665C65.038 7.83515 64.7752 8.1406 64.4467 8.15712H60.234V17.2799C60.234 17.6349 59.9466 17.9238 59.5935 17.9238H57.6308C57.2777 17.9238 56.9903 17.6349 56.9903 17.2799V5.55652C56.9903 5.20151 57.2777 4.91256 57.6308 4.91256H59.5688C59.9219 4.91256 60.234 5.20151 60.234 5.55652V6.53897L61.6875 5.05291C61.7696 4.9786 61.8682 4.93733 61.9749 4.93733Z" fill="#384ED8"/>
</svg>
