<svg width="68" height="31" viewBox="0 0 68 31" fill="none" xmlns="http://www.w3.org/2000/svg">
<path fill-rule="evenodd" clip-rule="evenodd" d="M20.4321 12.2282H23.6425V12.2368C26.4334 12.2368 28.6935 14.4113 28.6935 17.2022V25.0527C28.6935 25.4208 28.3939 25.7204 28.0258 25.7204H25.9968C25.6287 25.7204 25.329 25.4208 25.329 25.0527V16.6115C25.329 16.055 24.8753 15.6013 24.3188 15.6013H18.5829V25.0441C18.5829 25.4122 18.2833 25.7119 17.9152 25.7119H15.8862C15.5181 25.7119 15.2184 25.4122 15.2184 25.0441V7.83637C15.2184 7.46825 15.5181 7.16861 15.8862 7.16861H17.9152C18.2833 7.16861 18.5829 7.46825 18.5829 7.83637V13.8206L20.1325 12.348C20.2095 12.271 20.3208 12.2282 20.4321 12.2282ZM4.23192 17.2965H9.29149C11.6715 17.2965 13.5892 19.2655 13.5035 21.6626C13.4179 23.9399 11.4746 25.7206 9.18878 25.7206H0.713328C0.336642 25.7206 0.0284413 25.4124 0.0284413 25.0357V24.2566C0.0284413 24.1111 0.0883707 23.9655 0.191103 23.8628L1.5352 22.493C1.63793 22.3903 1.7749 22.3561 1.92044 22.3561H9.29149C9.78804 22.3561 10.1819 21.9366 10.1305 21.4315C10.0877 20.9949 9.70244 20.6696 9.25727 20.6696H4.2148C1.83482 20.6696 -0.0828514 18.7005 0.00275915 16.3034C0.0883697 14.0176 2.03174 12.2455 4.31754 12.2455H11.1321C11.5088 12.2455 11.817 12.5537 11.817 12.9304V13.7094C11.817 13.8549 11.7571 14.0005 11.6544 14.1032L10.2846 15.4473C10.1818 15.55 10.0363 15.61 9.89078 15.61H4.23192C3.76106 15.61 3.38439 15.9781 3.38439 16.4489C3.38439 16.9198 3.76962 17.2965 4.23192 17.2965ZM40.538 21.4484C40.538 21.9963 40.1013 22.4415 39.5534 22.4586H34.7764C34.2285 22.4501 33.7919 22.0049 33.7919 21.4484V16.6971C33.7919 16.1406 34.2456 15.6868 34.8021 15.6868H39.5363C40.0928 15.6868 40.5465 16.1406 40.5465 16.6971V21.4484H40.538ZM43.9025 17.1936C43.8083 14.4797 41.5824 12.3052 38.8514 12.3052H35.4698C32.7303 12.3052 30.513 14.4797 30.4188 17.1936C30.4017 17.245 30.4017 20.892 30.4188 20.9433C30.5044 23.4517 32.4135 25.4978 34.862 25.7889H39.4678C41.9163 25.4893 43.8254 23.4517 43.911 20.9433C43.9282 20.892 43.9282 17.2535 43.911 17.1936H43.9025ZM55.6355 16.6799C55.6355 16.1235 55.1818 15.6697 54.6253 15.6697V15.6783H48.898V22.4159H54.6253C55.1818 22.4159 55.6355 21.9621 55.6355 21.4056V16.6799ZM48.2131 30.8314H46.1927C45.8245 30.8314 45.5249 30.5317 45.5249 30.1636V12.973C45.5249 12.6049 45.8245 12.3052 46.1927 12.3052H48.2216C48.5898 12.3052 48.8894 12.6049 48.8894 12.973V13.9832L50.4389 12.4337C50.516 12.348 50.6273 12.3052 50.7386 12.3052H53.949C56.7399 12.3052 59 14.5654 59 17.3563V20.7293C59 23.5202 56.7399 25.7803 53.949 25.7803H48.8808V30.1636C48.8808 30.5317 48.5812 30.8314 48.2131 30.8314Z" fill="#E40138"/>
<g clip-path="url(#clip0_12928_54347)">
<path d="M36 7C36 3.13401 39.134 0 43 0H61C64.866 0 68 3.13401 68 7V7C68 10.866 64.866 14 61 14H43C39.134 14 36 10.866 36 7V7Z" fill="url(#paint0_linear_12928_54347)"/>
<path d="M47.5842 11H46.4497L42.157 4.42727V11H41.0279V2.46909H42.157L46.4606 9.07455V2.46909H47.5842V11ZM52.0426 11.1145C51.1808 11.1145 50.4808 10.8327 49.9426 10.2691C49.4044 9.70545 49.1353 8.95091 49.1353 8.00545V7.80909C49.1353 7.18 49.2553 6.61818 49.4953 6.12364C49.7353 5.62909 50.0698 5.24182 50.4989 4.96182C50.9317 4.68182 51.4008 4.54182 51.9062 4.54182C52.7317 4.54182 53.3717 4.81455 53.8262 5.36C54.2844 5.90182 54.5135 6.67818 54.5135 7.68909V8.14182H50.2208C50.2353 8.76727 50.4171 9.27273 50.7662 9.65818C51.1153 10.04 51.5589 10.2309 52.0971 10.2309C52.4826 10.2309 52.808 10.1527 53.0735 9.99636C53.3389 9.84 53.5717 9.63273 53.7717 9.37455L54.4317 9.89273C53.9008 10.7073 53.1044 11.1145 52.0426 11.1145ZM51.9062 5.43091C51.4698 5.43091 51.1026 5.59091 50.8044 5.91091C50.5062 6.23091 50.3226 6.67636 50.2535 7.24727H53.428V7.16545C53.3989 6.61636 53.2517 6.19091 52.9862 5.88909C52.7208 5.58364 52.3608 5.43091 51.9062 5.43091ZM61.384 9.50545L62.6059 4.66182H63.6913L61.8422 11H60.964L59.4259 6.19455L57.9259 11H57.0422L55.204 4.66182H56.284L57.5331 9.40727L59.0059 4.66182H59.8786L61.384 9.50545Z" fill="white"/>
</g>
<defs>
<linearGradient id="paint0_linear_12928_54347" x1="36" y1="0" x2="49.6213" y2="24.3015" gradientUnits="userSpaceOnUse">
<stop offset="0.146287" stop-color="#0D99FF"/>
<stop offset="1" stop-color="#1672DD"/>
</linearGradient>
<clipPath id="clip0_12928_54347">
<path d="M36 7C36 3.13401 39.134 0 43 0H61C64.866 0 68 3.13401 68 7V7C68 10.866 64.866 14 61 14H43C39.134 14 36 10.866 36 7V7Z" fill="white"/>
</clipPath>
</defs>
</svg>
