<svg width="19" height="24" viewBox="0 0 19 24" fill="none" xmlns="http://www.w3.org/2000/svg">
<path fill-rule="evenodd" clip-rule="evenodd" d="M18.3623 -6.10352e-05H16.3828C16.0266 -6.10352e-05 15.7367 0.297025 15.7367 0.653524V2.6652C15.7367 3.03019 16.0266 3.31877 16.3828 3.31877H18.3623C18.7184 3.31877 19 3.0217 19 2.6652V0.653524C19 0.288537 18.7101 -6.10352e-05 18.3623 -6.10352e-05ZM18.3623 5.00823H16.4159C16.0598 5.00823 15.7782 5.30531 15.7782 5.66181V17.7149C15.7782 18.0798 16.0681 18.3684 16.4159 18.3684H18.3623C18.7185 18.3684 19.0001 18.0714 19.0001 17.7149V5.66181C19.0001 5.29683 18.7102 5.00823 18.3623 5.00823ZM3.25502 14.1071C3.25502 14.6588 3.69399 15.1087 4.23236 15.1087V15.1002H9.77335V8.4201H4.23236C3.69399 8.4201 3.25502 8.86996 3.25502 9.42168V14.1071ZM4.88667 5.09278H12.3906C12.7468 5.09278 13.0367 5.38986 13.0367 5.75485V17.7994C13.0367 18.1644 12.7468 18.4615 12.3906 18.4615H10.4277C10.0715 18.4615 9.78163 18.1644 9.78163 17.7994V16.7978L8.2825 18.3341C8.20796 18.4105 8.10028 18.453 7.99261 18.453H4.88667C2.18658 18.453 0 16.2121 0 13.445V10.1007C0 7.33362 2.18658 5.09278 4.88667 5.09278Z" fill="url(#paint0_linear_3217_12933)"/>
<defs>
<linearGradient id="paint0_linear_3217_12933" x1="0" y1="-6.10352e-05" x2="22.6745" y2="10.6059" gradientUnits="userSpaceOnUse">
<stop offset="0.22" stop-color="#7F53EF"/>
<stop offset="1" stop-color="#2586FF"/>
</linearGradient>
</defs>
</svg>
