<svg width="86" height="24" viewBox="0 0 86 24" fill="none" xmlns="http://www.w3.org/2000/svg">
<path d="M44.2178 5.28027C44.599 5.28027 44.9021 5.58185 44.9023 5.95312V6.9668L46.4824 5.4043C46.5602 5.32695 46.6695 5.28032 46.7861 5.28027H50.0469C52.8794 5.28043 55.1747 7.56319 55.1748 10.3799V13.793C55.1746 16.6096 52.8793 18.8924 50.0469 18.8926H44.9023V23.3262C44.9023 23.6976 44.5913 24 44.2178 24H42.1553C41.7819 23.9998 41.4785 23.6975 41.4785 23.3262V5.95312C41.4787 5.582 41.7821 5.28051 42.1553 5.28027H44.2178ZM75.0508 5.25684C75.424 5.25701 75.7194 5.55859 75.7197 5.92969V14.4502C75.7197 15.0151 76.1791 15.4716 76.7471 15.4717H82.5684L82.584 5.9375C82.5842 5.56632 82.8874 5.26473 83.2607 5.26465L85.3232 5.25684C85.6964 5.25707 85.9997 5.55863 86 5.92969L85.9844 18.8535C85.9844 21.6781 83.6881 23.9922 80.8555 23.9922H75.9375C75.7976 23.9921 75.6656 23.9375 75.5723 23.8447L74.1631 22.4521C74.0621 22.3593 74.0078 22.2271 74.0078 22.0879V21.2529C74.0079 20.8817 74.3112 20.5871 74.6768 20.5869H81.541C82.109 20.5867 82.5684 20.099 82.5684 19.5342V18.8691H77.4316C74.5992 18.869 72.3116 16.5862 72.3115 13.7695V5.92969C72.3118 5.55854 72.615 5.25692 72.9883 5.25684H75.0508ZM33.5898 5.09277C33.9587 5.09292 34.2664 5.39116 34.2666 5.76562L34.251 18.6973C34.2508 21.5187 31.9594 23.8358 29.1221 23.8359H24.2002C24.0695 23.8359 23.9388 23.782 23.8389 23.6826L22.4316 22.291C22.3317 22.1916 22.2773 22.0615 22.2773 21.9238V21.0908C22.2773 20.7316 22.5774 20.4329 22.9463 20.4326H29.8057C30.367 20.4326 30.8291 19.9506 30.8291 19.3848V18.7197H25.6924C22.8625 18.7197 20.5625 16.4332 20.5625 13.6191V10.209C20.5625 7.39491 22.8625 5.1084 25.6924 5.1084H28.96C29.0752 5.1084 29.1907 5.15413 29.2676 5.23047L30.8447 6.79785V5.78125C30.8447 5.40667 31.1517 5.10859 31.5283 5.1084L33.5898 5.09277ZM69.9141 5.25684C70.2874 5.25684 70.5905 5.55849 70.5908 5.92969V18.2031C70.5908 18.5746 70.2876 18.877 69.9141 18.877H67.8516C67.4704 18.8767 67.167 18.5744 67.167 18.2031V17.1816L65.5869 18.7529C65.5092 18.8301 65.4007 18.8768 65.2842 18.877H62.0156C59.1831 18.8769 56.8869 16.594 56.8867 13.7773V10.3643C56.8868 7.54755 59.1831 5.26473 62.0156 5.26465L69.9141 5.25684ZM18.1709 5.10059C18.5477 5.10059 18.8477 5.39874 18.8477 5.77344V18.0625C18.8474 18.437 18.5399 18.7354 18.1709 18.7354H16.126C15.7493 18.7354 15.4495 18.4293 15.4492 18.0625V5.77344C15.4492 5.39874 15.7569 5.10059 16.126 5.10059H18.1709ZM38.7344 5.10059C39.111 5.1008 39.4111 5.39887 39.4111 5.77344V18.0625C39.4109 18.4368 39.1032 18.7351 38.7344 18.7354H36.6885C36.3118 18.7354 36.012 18.4293 36.0117 18.0625V5.77344C36.0117 5.39874 36.3194 5.10059 36.6885 5.10059H38.7344ZM13.0264 0.0078125C13.3955 0.0078125 13.7031 0.305964 13.7031 0.680664V18.0469C13.7031 18.4139 13.4031 18.7197 13.0264 18.7197H10.958C10.589 18.7197 10.2813 18.4215 10.2812 18.0469V17.0293L8.70508 18.5977C8.62053 18.6741 8.51273 18.7197 8.39746 18.7197H5.12891C2.29914 18.7196 0 16.4408 0 13.6191V10.209C0 7.39499 2.29145 5.10853 5.12891 5.1084H10.2812V0.672852C10.2813 0.305855 10.5813 3.6324e-05 10.958 0L13.0264 0.0078125ZM44.9023 15.4951H50.7236C51.2917 15.4951 51.751 15.0385 51.751 14.4736V9.70703C51.7509 9.14218 51.2917 8.68555 50.7236 8.68555H44.9023V15.4951ZM61.3379 8.6543C60.7701 8.65456 60.3106 9.11109 60.3105 9.67578V14.4502C60.3105 15.0149 60.77 15.4714 61.3379 15.4717H67.1592V8.6543H61.3379ZM4.45215 8.51855C3.89092 8.51871 3.42969 8.97036 3.42969 9.53613V14.3076C3.42979 14.8657 3.8833 15.3241 4.45215 15.3242H10.2734V8.51855H4.45215ZM25.0078 8.51855C24.4465 8.51855 23.9854 8.97026 23.9854 9.53613V14.3076C23.9854 14.8658 24.4388 15.3242 25.0078 15.3242H30.8291V8.51855H25.0078ZM18.1709 0C18.5477 0 18.8476 0.298189 18.8477 0.672852V2.72949C18.8477 3.10419 18.54 3.40332 18.1709 3.40332H16.0947C15.7179 3.4033 15.418 3.10418 15.418 2.72949V0.672852C15.418 0.298201 15.718 1.90298e-05 16.0947 0H18.1709ZM38.7344 0C39.1109 0.000230191 39.4111 0.298333 39.4111 0.672852V2.72949C39.4111 3.10404 39.1033 3.40309 38.7344 3.40332H36.6572C36.2806 3.40309 35.9814 3.10404 35.9814 2.72949V0.672852C35.9815 0.298339 36.2883 0.000239573 36.6572 0H38.7344Z" fill="#0040FF"/>
</svg>
