<svg width="66" height="24" viewBox="0 0 66 24" fill="none" xmlns="http://www.w3.org/2000/svg">
<path d="M32.2881 7.55518C34.6263 7.55518 36.5175 9.43607 36.5176 11.7612C36.5176 14.0865 34.6264 15.9673 32.2881 15.9673H26.3652V17.019C26.3654 17.3693 26.6488 17.6516 27.001 17.6519H35.9248C36.2513 17.6519 36.5174 17.9248 36.5176 18.2495L36.5264 19.0532C36.5264 19.2413 36.4492 19.4211 36.3203 19.5493L35.0391 20.8228C34.9016 20.9509 34.73 21.0277 34.541 21.0278H28.0586C25.2476 21.0277 22.9786 18.7628 22.9785 15.9761V12.6079C22.9785 9.81256 25.2562 7.55526 28.0586 7.55518H32.2881ZM21.4482 7.47021C21.8178 7.47029 22.1182 7.76966 22.1182 8.13721V10.1548C22.1181 10.5051 21.8436 10.8211 21.5 10.8384H17.0898V20.2847C17.0898 20.6523 16.7886 20.9517 16.4189 20.9517H14.3643C13.9947 20.9515 13.6943 20.6522 13.6943 20.2847V8.146C13.6943 7.77848 13.9947 7.47912 14.3643 7.479H16.3936C16.7631 7.47915 17.0898 7.77849 17.0898 8.146V9.1626L18.6113 7.62451C18.6973 7.54757 18.8004 7.50439 18.9121 7.50439L21.4482 7.47021ZM12.1719 2.43506C12.5415 2.43506 12.834 2.73422 12.834 3.09326V3.92236C12.8339 4.05891 12.774 4.18682 12.6797 4.28076L11.2871 5.65771C11.1925 5.75175 11.0633 5.80322 10.9258 5.80322H6.69629C6.35242 5.80322 6.06836 6.07675 6.06836 6.42725V7.48682H10.4697C10.8393 7.48682 11.1318 7.78602 11.1318 8.14502V10.1968C11.1318 10.5644 10.8308 10.855 10.4697 10.855H6.06836V20.3013C6.06836 20.6602 5.76807 20.9504 5.40723 20.9507H3.34375C2.97409 20.9507 2.68164 20.6603 2.68164 20.3013V10.855H1.6416C1.27195 10.855 0.979492 10.5558 0.979492 10.1968V8.14502C0.979543 7.77747 1.28057 7.48682 1.6416 7.48682H2.68164C2.68167 4.69998 4.96021 2.43506 7.7627 2.43506H12.1719ZM48.5645 7.49561C48.9427 7.49561 49.2519 7.80308 49.252 8.1792V8.95752C49.2519 9.10271 49.1919 9.2476 49.0889 9.3501L47.7139 10.6929C47.6107 10.7954 47.4644 10.8549 47.3184 10.855H41.6357C41.163 10.855 40.7852 11.2227 40.7852 11.6929C40.7852 12.1629 41.1716 12.5385 41.6357 12.5386H46.7168C49.1065 12.5388 51.0323 14.5054 50.9463 16.8989C50.8603 19.1728 48.9086 20.9507 46.6133 20.9507H38.1025C37.7243 20.9506 37.4151 20.6432 37.415 20.2671V19.4888C37.4151 19.3437 37.4752 19.1987 37.5781 19.0962L38.9277 17.728C39.0308 17.6255 39.1684 17.5914 39.3145 17.5913H46.7168C47.2151 17.5911 47.6099 17.1725 47.5586 16.6685C47.5156 16.2325 47.1287 15.9067 46.6816 15.9067H41.6182C39.2285 15.9065 37.3027 13.9408 37.3887 11.5474C37.4746 9.26493 39.4264 7.49566 41.7217 7.49561H48.5645ZM54.5166 2.42627C54.8861 2.42644 55.1865 2.72578 55.1865 3.09326V9.06885L56.7432 7.59814C56.8205 7.52134 56.9323 7.47803 57.0439 7.47803L60.2676 7.48682C63.0699 7.4869 65.3396 9.65824 65.3398 12.4448V20.2847C65.3397 20.6521 65.0385 20.9507 64.6689 20.9507H62.6318C62.2623 20.9507 61.9611 20.6521 61.9609 20.2847V11.855C61.9607 11.2995 61.5049 10.8462 60.9463 10.8462H55.1865V20.2759C55.1865 20.6433 54.8861 20.9427 54.5166 20.9429H52.4785C52.109 20.9427 51.8086 20.6433 51.8086 20.2759V3.09326C51.8086 2.72579 52.109 2.42646 52.4785 2.42627H54.5166ZM27.0098 10.9233C26.6574 10.9234 26.3652 11.2145 26.3652 11.5649V12.6079H32.2881C32.7867 12.6079 33.1824 12.1885 33.1309 11.6841C33.0877 11.2483 32.6922 10.9233 32.2539 10.9233H27.0098Z" fill="#05BA58"/>
</svg>
