<svg width="47" height="24" viewBox="0 0 47 24" fill="none" xmlns="http://www.w3.org/2000/svg">
<path fill-rule="evenodd" clip-rule="evenodd" d="M29.2025 17.4873V0.652946C29.2025 0.292988 29.4901 0 29.8434 0H31.7826C32.1359 0 32.4235 0.292988 32.4235 0.652946V17.4873C32.4235 17.8472 32.1359 18.1402 31.7826 18.1402H29.8434C29.4901 18.1402 29.2025 17.8472 29.2025 17.4873ZM37.296 13.8375C37.296 14.3816 37.7315 14.8253 38.2656 14.8253V14.8169H43.7626V8.22881H38.2656C37.7315 8.22881 37.296 8.67248 37.296 9.2166V13.8375ZM44.4199 0H46.3673L46.3591 0.0167458C46.7124 0.0167458 47 0.309734 47 0.669692V17.4789C47 17.8389 46.7124 18.1318 46.3591 18.1318H44.4117C44.0584 18.1318 43.7708 17.8389 43.7708 17.4789V16.4911L42.2836 18.0063C42.2096 18.0816 42.1028 18.1235 41.996 18.1235H38.9147C36.236 18.1235 34.0668 15.9135 34.0668 13.1845V9.87792C34.0668 7.14894 36.236 4.93897 38.9147 4.93897H43.779V0.652946C43.779 0.292988 44.0666 0 44.4199 0ZM24.3094 13.963C24.3094 14.4988 23.8903 14.9341 23.3644 14.9508H18.7795C18.2536 14.9424 17.8345 14.5071 17.8345 13.963V9.31706C17.8345 8.77294 18.27 8.32925 18.8041 8.32925H23.348C23.8821 8.32925 24.3176 8.77294 24.3176 9.31706V13.963H24.3094ZM27.5386 9.80257C27.4482 7.14893 25.3118 5.02267 22.6907 5.02267H19.445C16.8157 5.02267 14.6875 7.14893 14.5971 9.80257C14.5807 9.8528 14.5807 13.4189 14.5971 13.4691C14.6793 15.9219 16.5116 17.9226 18.8616 18.2072H23.2823C25.6323 17.9142 27.4646 15.9219 27.5468 13.4691C27.5632 13.4189 27.5632 9.86117 27.5468 9.80257H27.5386ZM4.19057 15.7377H9.6876V15.7293V9.14126H4.19057C3.65648 9.14126 3.22099 9.58493 3.22099 10.129V14.7499C3.22099 15.294 3.65648 15.7377 4.19057 15.7377ZM10.3449 5.85978H12.2923L12.3005 5.86815C12.6539 5.86815 12.9414 6.16114 12.9414 6.5211L12.925 19.0276C12.925 21.7565 10.7558 24 8.07711 24H3.43462C3.30316 24 3.17991 23.9498 3.08952 23.8577L1.75839 22.5099C1.65979 22.4179 1.6105 22.2923 1.6105 22.1584V21.3464C1.6105 20.9948 1.89809 20.7102 2.24319 20.7102H8.72624C9.26033 20.7102 9.69582 20.2414 9.69582 19.6972V19.0527H4.84791C2.16924 19.0527 0 16.8427 0 14.1137V10.8071C0 8.07813 2.16924 5.86815 4.84791 5.86815H7.92921C8.03603 5.86815 8.14284 5.91001 8.21679 5.98535L9.70404 7.50052V6.51273C9.70404 6.15277 9.99163 5.85978 10.3449 5.85978Z" fill="#027275"/>
</svg>
