<svg width="36" height="25" viewBox="0 0 36 25" fill="none" xmlns="http://www.w3.org/2000/svg">
<path fill-rule="evenodd" clip-rule="evenodd" d="M5.84521 0H8.05805C8.40188 0 8.68399 0.280527 8.68399 0.622412V2.80521C8.68399 3.14709 8.40188 3.42762 8.05805 3.42762H5.84521C5.50138 3.42762 5.21927 3.14709 5.21927 2.80521V0.622412C5.21927 0.280527 5.50138 0 5.84521 0ZM5.83625 5.15466H8.03144C8.37527 5.15466 8.64858 5.42641 8.64858 5.7683V18.9616C8.64858 22.4155 6.2594 24.1424 3.36773 24.1424H1.89545C1.78084 24.1424 1.67505 24.0986 1.59571 24.0197L0.123411 22.5557C0.0440665 22.4768 0 22.3716 0 22.2577V21.3547C0 20.9953 0.290914 20.7148 0.643557 20.7148H4.23171C4.77831 20.7148 5.21911 20.2765 5.21911 19.733V5.7683C5.21911 5.42641 5.49242 5.15466 5.83625 5.15466ZM13.9841 9.37131C13.9841 9.01189 14.2838 8.71383 14.6453 8.71383H20.0231C20.4727 8.71383 20.8783 9.04695 20.9223 9.49403C20.9752 10.0112 20.5697 10.4408 20.0583 10.4408H13.9841V9.37131ZM24.3959 17.0506V16.2265C24.3959 15.8934 24.1226 15.6129 23.7876 15.6129H14.6365C14.275 15.6129 13.9841 15.3236 13.9841 14.9642V13.8859H20.0583C22.4563 13.8859 24.3959 11.9574 24.3959 9.57294C24.3959 7.18851 22.4563 5.25993 20.0583 5.25993H15.7208C12.8468 5.25993 10.5105 7.57422 10.5105 10.4408V13.8947C10.5105 16.7525 12.838 19.0756 15.7208 19.0756H22.3682C22.5621 19.0756 22.7384 18.9967 22.8795 18.8652L24.1931 17.559C24.3253 17.4275 24.4047 17.2434 24.4047 17.0506H24.3959ZM35.7619 7.99486C35.7619 8.34551 35.4797 8.62603 35.1271 8.62603H30.5427V14.8413C30.5427 15.227 30.8513 15.5339 31.2304 15.5339H35.1095C35.4709 15.5339 35.7707 15.8232 35.7707 16.1913V16.9452C35.7707 17.1381 35.6913 17.3309 35.5503 17.4712L34.2631 18.7599C34.122 18.9001 33.9281 18.979 33.7342 18.979H32.2795C29.4054 18.979 27.0868 16.6559 27.0868 13.7894V8.62603H25.9848C25.6322 8.62603 25.3501 8.34551 25.3501 7.99486V5.81205C25.3501 5.4614 25.6322 5.18088 25.9848 5.18088H27.078V0.692544C27.078 0.306827 27.3866 0 27.7657 0H29.8463C30.2254 0 30.5339 0.315594 30.5339 0.692544V6.90782L32.0415 5.40003C32.1825 5.25977 32.3765 5.18088 32.5704 5.18088H35.1271C35.4797 5.18088 35.7619 5.4614 35.7619 5.81205V7.99486Z" fill="#FF5E1F"/>
</svg>
