<svg width="65" height="24" viewBox="0 0 65 24" fill="none" xmlns="http://www.w3.org/2000/svg">
<path fill-rule="evenodd" clip-rule="evenodd" d="M49.3926 4.90911H46.2628C46.1543 4.90911 46.0458 4.95064 45.9707 5.0254L44.46 6.45411V0.647902C44.46 0.290725 44.1679 0 43.809 0H41.831C41.4721 0 41.18 0.290725 41.18 0.647902V17.3439C41.18 17.701 41.4721 17.9918 41.831 17.9918H43.809C44.1679 17.9918 44.46 17.701 44.46 17.3439V8.18185H50.052C50.5945 8.18185 51.0368 8.62209 51.0368 9.16201V17.3522C51.0368 17.7093 51.3289 18.0001 51.6878 18.0001H53.6658C54.0247 18.0001 54.3168 17.7093 54.3168 17.3522V9.73515C54.3168 7.02725 52.1135 4.91741 49.3926 4.91741V4.90911ZM29.4371 8.18197C29.0949 8.18197 28.8111 8.46439 28.8111 8.80495V9.81834H34.5616C35.0457 9.81834 35.4296 9.41132 35.3796 8.92124C35.3378 8.49761 34.9539 8.18197 34.5282 8.18197H29.4371ZM38.6679 15.3006V16.0814H38.6763C38.6763 16.2641 38.6012 16.4386 38.476 16.5632L37.2324 17.8008C37.0989 17.9254 36.9319 18.0002 36.7483 18.0002H30.4553C27.7261 18.0002 25.5227 15.799 25.5227 13.0911V9.81834C25.5227 7.10213 27.7344 4.90924 30.4553 4.90924H34.5616C36.8318 4.90924 38.6679 6.73665 38.6679 8.99601C38.6679 11.2554 36.8318 13.0828 34.5616 13.0828H28.8111V14.1045C28.8111 14.445 29.0865 14.7191 29.4287 14.7191H38.0921C38.4092 14.7191 38.6679 14.985 38.6679 15.3006ZM13.3956 4.92566H17.961L17.9693 4.91735C20.757 4.91735 23.0188 7.16841 23.0188 9.94276V17.4019C23.0188 17.7342 22.7517 18 22.4179 18H20.3313C19.9975 18 19.7304 17.7342 19.7304 17.4019V9.15364C19.7304 8.61372 19.288 8.18178 18.7539 8.18178H12.8197C13.0367 8.74661 13.1536 9.353 13.1536 9.98429V17.4019C13.1536 17.7342 12.8865 18 12.5527 18H10.4661C10.1323 18 9.86519 17.7342 9.86519 17.4019V9.15364C9.86519 8.61372 9.42285 8.18178 8.88869 8.18178H3.28839V17.4019C3.28839 17.7342 3.02131 18 2.68747 18H0.60092C0.267073 18 0 17.7342 0 17.4019V5.53203C0 5.19147 0.275422 4.91735 0.617616 4.91735H2.67078C3.01297 4.91735 3.28839 5.19147 3.28839 5.53203V6.8029C3.28839 6.65339 3.35516 6.49557 3.46366 6.38758L4.75732 5.10009C4.87417 4.99211 5.0244 4.92566 5.18298 4.92566H8.05407C9.46458 4.92566 10.7415 5.49051 11.6596 6.41253L12.9783 5.10009C13.0868 4.99211 13.237 4.92566 13.3956 4.92566ZM61.887 4.93435L64.3492 4.91774V4.90113C64.708 4.90113 65.0002 5.19185 65.0002 5.54903V7.50935C65.0002 7.84991 64.7331 8.15724 64.3992 8.17385H60.1176V17.3525C60.1176 17.7097 59.8255 18.0004 59.4666 18.0004H57.4719C57.113 18.0004 56.8209 17.7097 56.8209 17.3525V5.55733C56.8209 5.20015 57.113 4.90943 57.4719 4.90943H59.4416C59.8005 4.90943 60.1176 5.20015 60.1176 5.55733V6.5458L61.5949 5.05064C61.6784 4.97588 61.7785 4.93435 61.887 4.93435Z" fill="#059675"/>
</svg>
