<svg width="52" height="24" viewBox="0 0 52 24" fill="none" xmlns="http://www.w3.org/2000/svg">
<path fill-rule="evenodd" clip-rule="evenodd" d="M15.9292 0.656799V17.5904C15.9292 17.9525 16.2302 18.2472 16.5999 18.2472H18.6289C18.9986 18.2472 19.2995 17.9525 19.2995 17.5904V0.656799C19.2995 0.294717 18.9986 0 18.6289 0H16.5999C16.2302 0 15.9292 0.294717 15.9292 0.656799ZM33.1571 5.06039H35.1948L35.1862 5.05196C35.5559 5.05196 35.8568 5.34668 35.8568 5.70876V17.6406C35.8568 18.0027 35.5559 18.2974 35.1862 18.2974H33.1486C32.7789 18.2974 32.4779 18.0027 32.4779 17.6406V16.647L30.9218 18.1711C30.8444 18.2554 30.7326 18.2974 30.6208 18.2974H27.3967C24.6024 18.2974 22.3326 16.0744 22.3326 13.3377V5.70876C22.3326 5.34668 22.6336 5.05196 23.0033 5.05196H25.0409C25.4106 5.05196 25.7116 5.34668 25.7116 5.70876V13.9945C25.7116 14.5419 26.1672 14.9882 26.7261 14.9882H32.4779H32.4865V5.71719C32.4865 5.35511 32.7874 5.06039 33.1571 5.06039ZM42.6859 10.0201H47.7671C50.1573 10.0201 52.0832 11.9568 51.9972 14.3145C51.9112 16.5544 49.9595 18.3059 47.664 18.3059H39.1522C38.7739 18.3059 38.4644 18.0027 38.4644 17.6322V16.866C38.4644 16.7228 38.5246 16.5796 38.6278 16.4786L39.9776 15.1313C40.0808 15.0303 40.2184 14.9966 40.3645 14.9966H47.7671C48.2658 14.9966 48.6613 14.584 48.6097 14.0872C48.5667 13.6577 48.1798 13.3378 47.7327 13.3378H42.6687C40.2785 13.3378 38.3526 11.401 38.4386 9.04329C38.5246 6.79501 40.4763 5.05196 42.7719 5.05196H49.6156C49.9939 5.05196 50.3035 5.3551 50.3035 5.72561V6.49188C50.3035 6.63503 50.2433 6.77817 50.1401 6.87921L48.7645 8.20124C48.6613 8.30229 48.5151 8.36123 48.369 8.36123H42.6859C42.213 8.36123 41.8347 8.7233 41.8347 9.18643C41.8347 9.64956 42.2216 10.0201 42.6859 10.0201ZM10.1539 9.35485C10.1539 8.80751 9.6982 8.36123 9.13935 8.36123V8.36964H3.3875V14.9966H9.13935C9.6982 14.9966 10.1539 14.5503 10.1539 14.003V9.35485ZM2.69968 23.274H0.67062C0.300918 23.274 0 22.9792 0 22.6172V5.70876C0 5.34668 0.300918 5.05196 0.67062 5.05196H2.70827C3.07797 5.05196 3.37889 5.34668 3.37889 5.70876V6.70239L4.93507 5.17827C5.01245 5.09406 5.12423 5.05196 5.236 5.05196H8.46013C11.263 5.05196 13.5328 7.27499 13.5328 10.0201V13.3378C13.5328 16.0829 11.263 18.3059 8.46013 18.3059H3.3703V22.6172C3.3703 22.9792 3.06938 23.274 2.69968 23.274Z" fill="#B12BA4"/>
</svg>
