<svg width="59" height="24" viewBox="0 0 59 24" fill="none" xmlns="http://www.w3.org/2000/svg">
<path fill-rule="evenodd" clip-rule="evenodd" d="M20.4321 5.2282H23.6425V5.23675C26.4334 5.23675 28.6935 7.41126 28.6935 10.2022V18.0527C28.6935 18.4208 28.3939 18.7204 28.0258 18.7204H25.9968C25.6287 18.7204 25.329 18.4208 25.329 18.0527V9.61145C25.329 9.05498 24.8753 8.60125 24.3188 8.60125H18.5829V18.0441C18.5829 18.4122 18.2833 18.7119 17.9152 18.7119H15.8862C15.5181 18.7119 15.2184 18.4122 15.2184 18.0441V0.836371C15.2184 0.468245 15.5181 0.16861 15.8862 0.16861H17.9152C18.2833 0.16861 18.5829 0.468245 18.5829 0.836371V6.82055L20.1325 5.34805C20.2095 5.271 20.3208 5.2282 20.4321 5.2282ZM4.23192 10.2965H9.29149C11.6715 10.2965 13.5892 12.2655 13.5035 14.6626C13.4179 16.9399 11.4746 18.7206 9.18878 18.7206H0.713328C0.336642 18.7206 0.0284413 18.4124 0.0284413 18.0357V17.2566C0.0284413 17.1111 0.0883707 16.9655 0.191103 16.8628L1.5352 15.493C1.63793 15.3903 1.7749 15.3561 1.92044 15.3561H9.29149C9.78804 15.3561 10.1819 14.9366 10.1305 14.4315C10.0877 13.9949 9.70244 13.6696 9.25727 13.6696H4.2148C1.83482 13.6696 -0.0828514 11.7005 0.00275915 9.30341C0.0883697 7.01761 2.03174 5.24546 4.31754 5.24546H11.1321C11.5088 5.24546 11.817 5.55367 11.817 5.93035V6.70941C11.817 6.85495 11.7571 7.00048 11.6544 7.10321L10.2846 8.4473C10.1818 8.55004 10.0363 8.60997 9.89078 8.60997H4.23192C3.76106 8.60997 3.38439 8.97807 3.38439 9.44893C3.38439 9.91979 3.76962 10.2965 4.23192 10.2965ZM40.538 14.4484C40.538 14.9963 40.1013 15.4415 39.5534 15.4586H34.7764C34.2285 15.4501 33.7919 15.0049 33.7919 14.4484V9.69707C33.7919 9.1406 34.2456 8.68684 34.8021 8.68684H39.5363C40.0928 8.68684 40.5465 9.1406 40.5465 9.69707V14.4484H40.538ZM43.9025 10.1936C43.8083 7.47974 41.5824 5.30524 38.8514 5.30524H35.4698C32.7303 5.30524 30.513 7.47974 30.4188 10.1936C30.4017 10.245 30.4017 13.892 30.4188 13.9433C30.5044 16.4517 32.4135 18.4978 34.862 18.7889H39.4678C41.9163 18.4893 43.8254 16.4517 43.911 13.9433C43.9282 13.892 43.9282 10.2535 43.911 10.1936H43.9025ZM55.6355 9.67994C55.6355 9.12347 55.1818 8.66974 54.6253 8.66974V8.67829H48.898V15.4159H54.6253C55.1818 15.4159 55.6355 14.9621 55.6355 14.4056V9.67994ZM48.2131 23.8314H46.1927C45.8245 23.8314 45.5249 23.5317 45.5249 23.1636V5.973C45.5249 5.60488 45.8245 5.30524 46.1927 5.30524H48.2216C48.5898 5.30524 48.8894 5.60488 48.8894 5.973V6.98321L50.4389 5.43365C50.516 5.34804 50.6273 5.30524 50.7386 5.30524H53.949C56.7399 5.30524 59 7.56537 59 10.3563V13.7293C59 16.5202 56.7399 18.7803 53.949 18.7803H48.8808V23.1636C48.8808 23.5317 48.5812 23.8314 48.2131 23.8314Z" fill="#EF4056"/>
</svg>
